<svg width="280" height="80" viewBox="0 0 280 80" fill="none" xmlns="http://www.w3.org/2000/svg">
<rect width="280" height="80" rx="40" fill="url(#paint0_linear_1_401)"/>
<path d="M71.68 50.196C70.3173 50.196 69.0853 49.9627 67.984 49.496C66.9013 49.0293 66.0427 48.3573 65.408 47.48C64.7733 46.6027 64.4467 45.5667 64.428 44.372H68.628C68.684 45.1747 68.964 45.8093 69.468 46.276C69.9907 46.7427 70.7 46.976 71.596 46.976C72.5107 46.976 73.2293 46.7613 73.752 46.332C74.2747 45.884 74.536 45.3053 74.536 44.596C74.536 44.0173 74.3587 43.5413 74.004 43.168C73.6493 42.7947 73.2013 42.5053 72.66 42.3C72.1373 42.076 71.4093 41.8333 70.476 41.572C69.2067 41.1987 68.1707 40.8347 67.368 40.48C66.584 40.1067 65.9027 39.556 65.324 38.828C64.764 38.0813 64.484 37.092 64.484 35.86C64.484 34.7027 64.7733 33.6947 65.352 32.836C65.9307 31.9773 66.7427 31.324 67.788 30.876C68.8333 30.4093 70.028 30.176 71.372 30.176C73.388 30.176 75.0213 30.6707 76.272 31.66C77.5413 32.6307 78.2413 33.9933 78.372 35.748H74.06C74.0227 35.076 73.7333 34.5253 73.192 34.096C72.6693 33.648 71.9693 33.424 71.092 33.424C70.3267 33.424 69.7107 33.62 69.244 34.012C68.796 34.404 68.572 34.9733 68.572 35.72C68.572 36.2427 68.74 36.6813 69.076 37.036C69.4307 37.372 69.86 37.652 70.364 37.876C70.8867 38.0813 71.6147 38.324 72.548 38.604C73.8173 38.9773 74.8533 39.3507 75.656 39.724C76.4587 40.0973 77.1493 40.6573 77.728 41.404C78.3067 42.1507 78.596 43.1307 78.596 44.344C78.596 45.3893 78.3253 46.36 77.784 47.256C77.2427 48.152 76.4493 48.8707 75.404 49.412C74.3587 49.9347 73.1173 50.196 71.68 50.196ZM80.9865 42.188C80.9865 40.62 81.2945 39.2293 81.9105 38.016C82.5452 36.8027 83.3945 35.8693 84.4585 35.216C85.5412 34.5627 86.7452 34.236 88.0705 34.236C89.2278 34.236 90.2358 34.4693 91.0945 34.936C91.9718 35.4027 92.6718 35.9907 93.1945 36.7V34.488H97.1425V50H93.1945V47.732C92.6905 48.46 91.9905 49.0667 91.0945 49.552C90.2172 50.0187 89.1998 50.252 88.0425 50.252C86.7358 50.252 85.5412 49.916 84.4585 49.244C83.3945 48.572 82.5452 47.6293 81.9105 46.416C81.2945 45.184 80.9865 43.7747 80.9865 42.188ZM93.1945 42.244C93.1945 41.292 93.0078 40.48 92.6345 39.808C92.2612 39.1173 91.7572 38.5947 91.1225 38.24C90.4878 37.8667 89.8065 37.68 89.0785 37.68C88.3505 37.68 87.6785 37.8573 87.0625 38.212C86.4465 38.5667 85.9425 39.0893 85.5505 39.78C85.1772 40.452 84.9905 41.2547 84.9905 42.188C84.9905 43.1213 85.1772 43.9427 85.5505 44.652C85.9425 45.3427 86.4465 45.8747 87.0625 46.248C87.6972 46.6213 88.3692 46.808 89.0785 46.808C89.8065 46.808 90.4878 46.6307 91.1225 46.276C91.7572 45.9027 92.2612 45.38 92.6345 44.708C93.0078 44.0173 93.1945 43.196 93.1945 42.244ZM104.891 36.756C105.395 36.0093 106.086 35.4027 106.963 34.936C107.859 34.4693 108.876 34.236 110.015 34.236C111.34 34.236 112.535 34.5627 113.599 35.216C114.682 35.8693 115.531 36.8027 116.147 38.016C116.782 39.2107 117.099 40.6013 117.099 42.188C117.099 43.7747 116.782 45.184 116.147 46.416C115.531 47.6293 114.682 48.572 113.599 49.244C112.535 49.916 111.34 50.252 110.015 50.252C108.858 50.252 107.84 50.028 106.963 49.58C106.104 49.1133 105.414 48.516 104.891 47.788V50H100.971V29.28H104.891V36.756ZM113.095 42.188C113.095 41.2547 112.899 40.452 112.507 39.78C112.134 39.0893 111.63 38.5667 110.995 38.212C110.379 37.8573 109.707 37.68 108.979 37.68C108.27 37.68 107.598 37.8667 106.963 38.24C106.347 38.5947 105.843 39.1173 105.451 39.808C105.078 40.4987 104.891 41.3107 104.891 42.244C104.891 43.1773 105.078 43.9893 105.451 44.68C105.843 45.3707 106.347 45.9027 106.963 46.276C107.598 46.6307 108.27 46.808 108.979 46.808C109.707 46.808 110.379 46.6213 110.995 46.248C111.63 45.8747 112.134 45.3427 112.507 44.652C112.899 43.9613 113.095 43.14 113.095 42.188ZM134.368 41.908C134.368 42.468 134.33 42.972 134.256 43.42H122.916C123.009 44.54 123.401 45.4173 124.092 46.052C124.782 46.6867 125.632 47.004 126.64 47.004C128.096 47.004 129.132 46.3787 129.748 45.128H133.976C133.528 46.6213 132.669 47.8533 131.4 48.824C130.13 49.776 128.572 50.252 126.724 50.252C125.23 50.252 123.886 49.9253 122.692 49.272C121.516 48.6 120.592 47.6573 119.92 46.444C119.266 45.2307 118.94 43.8307 118.94 42.244C118.94 40.6387 119.266 39.2293 119.92 38.016C120.573 36.8027 121.488 35.8693 122.664 35.216C123.84 34.5627 125.193 34.236 126.724 34.236C128.198 34.236 129.514 34.5533 130.672 35.188C131.848 35.8227 132.753 36.728 133.388 37.904C134.041 39.0613 134.368 40.396 134.368 41.908ZM130.308 40.788C130.289 39.78 129.925 38.9773 129.216 38.38C128.506 37.764 127.638 37.456 126.612 37.456C125.641 37.456 124.82 37.7547 124.148 38.352C123.494 38.9307 123.093 39.7427 122.944 40.788H130.308ZM141.149 36.896C141.653 36.0747 142.306 35.4307 143.109 34.964C143.93 34.4973 144.864 34.264 145.909 34.264V38.38H144.873C143.641 38.38 142.708 38.6693 142.073 39.248C141.457 39.8267 141.149 40.8347 141.149 42.272V50H137.229V34.488H141.149V36.896ZM174.485 34.264C176.389 34.264 177.92 34.852 179.077 36.028C180.253 37.1853 180.841 38.8093 180.841 40.9V50H176.921V41.432C176.921 40.2187 176.613 39.2947 175.997 38.66C175.381 38.0067 174.541 37.68 173.477 37.68C172.413 37.68 171.564 38.0067 170.929 38.66C170.313 39.2947 170.005 40.2187 170.005 41.432V50H166.085V41.432C166.085 40.2187 165.777 39.2947 165.161 38.66C164.545 38.0067 163.705 37.68 162.641 37.68C161.558 37.68 160.7 38.0067 160.065 38.66C159.449 39.2947 159.141 40.2187 159.141 41.432V50H155.221V34.488H159.141V36.364C159.645 35.7107 160.289 35.1973 161.073 34.824C161.876 34.4507 162.753 34.264 163.705 34.264C164.918 34.264 166.001 34.5253 166.953 35.048C167.905 35.552 168.642 36.28 169.165 37.232C169.669 36.336 170.397 35.6173 171.349 35.076C172.32 34.5347 173.365 34.264 174.485 34.264ZM183.553 42.188C183.553 40.62 183.861 39.2293 184.477 38.016C185.112 36.8027 185.961 35.8693 187.025 35.216C188.108 34.5627 189.312 34.236 190.637 34.236C191.794 34.236 192.802 34.4693 193.661 34.936C194.538 35.4027 195.238 35.9907 195.761 36.7V34.488H199.709V50H195.761V47.732C195.257 48.46 194.557 49.0667 193.661 49.552C192.784 50.0187 191.766 50.252 190.609 50.252C189.302 50.252 188.108 49.916 187.025 49.244C185.961 48.572 185.112 47.6293 184.477 46.416C183.861 45.184 183.553 43.7747 183.553 42.188ZM195.761 42.244C195.761 41.292 195.574 40.48 195.201 39.808C194.828 39.1173 194.324 38.5947 193.689 38.24C193.054 37.8667 192.373 37.68 191.645 37.68C190.917 37.68 190.245 37.8573 189.629 38.212C189.013 38.5667 188.509 39.0893 188.117 39.78C187.744 40.452 187.557 41.2547 187.557 42.188C187.557 43.1213 187.744 43.9427 188.117 44.652C188.509 45.3427 189.013 45.8747 189.629 46.248C190.264 46.6213 190.936 46.808 191.645 46.808C192.373 46.808 193.054 46.6307 193.689 46.276C194.324 45.9027 194.828 45.38 195.201 44.708C195.574 44.0173 195.761 43.196 195.761 42.244ZM205.525 32.64C204.835 32.64 204.256 32.4253 203.789 31.996C203.341 31.548 203.117 30.9973 203.117 30.344C203.117 29.6907 203.341 29.1493 203.789 28.72C204.256 28.272 204.835 28.048 205.525 28.048C206.216 28.048 206.785 28.272 207.233 28.72C207.7 29.1493 207.933 29.6907 207.933 30.344C207.933 30.9973 207.7 31.548 207.233 31.996C206.785 32.4253 206.216 32.64 205.525 32.64ZM207.457 34.488V50H203.537V34.488H207.457ZM217.266 50.252C215.997 50.252 214.858 50.028 213.85 49.58C212.842 49.1133 212.04 48.488 211.442 47.704C210.864 46.92 210.546 46.052 210.49 45.1H214.438C214.513 45.6973 214.802 46.192 215.306 46.584C215.829 46.976 216.473 47.172 217.238 47.172C217.985 47.172 218.564 47.0227 218.974 46.724C219.404 46.4253 219.618 46.0427 219.618 45.576C219.618 45.072 219.357 44.6987 218.834 44.456C218.33 44.1947 217.518 43.9147 216.398 43.616C215.241 43.336 214.289 43.0467 213.542 42.748C212.814 42.4493 212.18 41.992 211.638 41.376C211.116 40.76 210.854 39.9293 210.854 38.884C210.854 38.0253 211.097 37.2413 211.582 36.532C212.086 35.8227 212.796 35.2627 213.71 34.852C214.644 34.4413 215.736 34.236 216.986 34.236C218.834 34.236 220.309 34.7027 221.41 35.636C222.512 36.5507 223.118 37.792 223.23 39.36H219.478C219.422 38.744 219.161 38.2587 218.694 37.904C218.246 37.5307 217.64 37.344 216.874 37.344C216.165 37.344 215.614 37.4747 215.222 37.736C214.849 37.9973 214.662 38.3613 214.662 38.828C214.662 39.3507 214.924 39.752 215.446 40.032C215.969 40.2933 216.781 40.564 217.882 40.844C219.002 41.124 219.926 41.4133 220.654 41.712C221.382 42.0107 222.008 42.4773 222.53 43.112C223.072 43.728 223.352 44.5493 223.37 45.576C223.37 46.472 223.118 47.2747 222.614 47.984C222.129 48.6933 221.42 49.2533 220.486 49.664C219.572 50.056 218.498 50.252 217.266 50.252Z" fill="white"/>
<defs>
<linearGradient id="paint0_linear_1_401" x1="280" y1="40" x2="9.82738e-07" y2="40" gradientUnits="userSpaceOnUse">
<stop stop-color="#13ADC7"/>
<stop offset="0.666667" stop-color="#6978D1"/>
<stop offset="1" stop-color="#945DD6"/>
</linearGradient>
</defs>
</svg>
